<svg width="243" height="44" viewBox="0 0 243 44" fill="none" xmlns="http://www.w3.org/2000/svg">
<path d="M49.5101 25.0238C49.8825 26.0043 50.5223 26.793 51.4302 27.3899C52.3844 28.008 53.4202 28.3172 54.5373 28.3172C54.9793 28.3172 55.2121 28.3066 55.2354 28.2852L55.5145 28.2532L55.7939 28.2212L56.0034 28.1892L56.1779 28.1572C56.8993 28.008 57.6557 27.7097 58.4471 27.2619C58.8427 27.0273 59.2733 26.9956 59.7387 27.1659C60.2276 27.3365 60.565 27.6134 60.7511 27.9972C61.1701 28.7859 60.891 29.4892 59.9132 30.1075C58.7495 30.7257 57.7254 31.1306 56.8411 31.3226L56.5966 31.3546L56.3175 31.3866L55.9682 31.4186L55.5842 31.4506L55.0606 31.4826H54.537C52.1164 31.4826 50.0451 30.6939 48.3229 29.1165C46.6239 27.5605 45.7744 25.6739 45.7744 23.4572C45.7744 21.2191 46.6239 19.3219 48.3229 17.7659C50.0218 16.2099 52.0933 15.4318 54.537 15.4318C56.8877 15.4318 58.8774 16.1139 60.5067 17.4781C62.3685 19.0129 63.2997 21.0059 63.2997 23.4572C63.2997 23.841 63.1368 24.2139 62.811 24.5763C62.4154 24.8746 61.9964 25.0238 61.5541 25.0238H49.5101ZM59.5993 21.8584C59.2503 20.7925 58.5752 19.972 57.5746 19.3965C56.7134 18.8635 55.7009 18.5972 54.5373 18.5972C53.4202 18.5972 52.3844 18.9064 51.4302 19.5245C50.5223 20.1214 49.8825 20.8993 49.5101 21.8586L59.5993 21.8584ZM79.0658 9.03695C79.0658 8.65319 79.2287 8.28025 79.5545 7.9179C79.9501 7.61954 80.3575 7.47037 80.7764 7.47037C81.2185 7.47037 81.6377 7.61954 82.0333 7.9179C82.3591 8.28025 82.522 8.65319 82.522 9.03695V23.3932C82.522 25.5887 81.6607 27.4751 79.9385 29.0525C78.2162 30.6299 76.1564 31.4186 73.7593 31.4186C71.3387 31.4186 69.2674 30.6299 67.5452 29.0525C65.846 27.4965 64.9967 25.6099 64.9967 23.3932C64.9967 21.1551 65.8462 19.2579 67.5452 17.7019C69.2441 16.1459 71.3156 15.3678 73.7593 15.3678C75.7376 15.3678 77.5065 15.9113 79.0658 16.9984V9.03695ZM79.0658 23.3612C79.0658 22.0821 78.5537 20.9419 77.5298 19.94C76.436 19.0021 75.1791 18.5332 73.7593 18.5332C72.2929 18.5332 71.0479 19.0021 70.0238 19.94C68.9764 20.8993 68.4528 22.0504 68.4528 23.3932C68.4528 24.7148 68.9764 25.8551 70.0238 26.8144C71.0479 27.7737 72.2929 28.2532 73.7593 28.2532C75.2257 28.2532 76.4824 27.7737 77.5298 26.8144C78.5539 25.8765 79.0658 24.736 79.0658 23.3932V23.3612ZM92.5624 30.4273C92.2599 31.1308 91.7128 31.4824 90.9217 31.4824H90.8868C90.0721 31.4824 89.5252 31.1306 89.2459 30.4273L84.0092 17.6377C83.8231 17.2113 83.8347 16.8064 84.0439 16.4226C84.2534 16.0177 84.5794 15.7405 85.0215 15.5913C85.2775 15.4421 85.7198 15.4527 86.348 15.6233C86.767 15.7939 87.0694 16.0923 87.2556 16.5186L90.9212 25.4393L94.5519 16.5186C94.7381 16.0923 95.0408 15.7939 95.4595 15.6233C96.088 15.4527 96.53 15.4421 96.7861 15.5913C97.2283 15.7405 97.5543 16.0177 97.7636 16.4226C97.9731 16.8064 97.9847 17.2113 97.7985 17.6377L92.5624 30.4273ZM114.019 29.1165C112.297 30.6939 110.225 31.4826 107.805 31.4826C105.407 31.4826 103.348 30.6939 101.626 29.1165C99.9031 27.5391 99.0421 25.6527 99.0421 23.4572C99.0421 21.2403 99.9033 19.3433 101.626 17.7659C103.325 16.2099 105.384 15.4318 107.805 15.4318C110.248 15.4318 112.32 16.2099 114.019 17.7659C115.718 19.3219 116.567 21.2191 116.567 23.4572C116.567 25.6741 115.718 27.5605 114.019 29.1165ZM111.575 20.004C110.481 19.0661 109.225 18.5972 107.805 18.5972C106.338 18.5972 105.093 19.0661 104.069 20.004C103.022 20.9633 102.498 22.1144 102.498 23.4572C102.498 24.7788 103.022 25.9191 104.069 26.8784C105.093 27.8377 106.339 28.3172 107.805 28.3172C109.271 28.3172 110.528 27.8377 111.575 26.8784C112.599 25.8765 113.111 24.736 113.111 23.4572C113.111 22.157 112.599 21.0059 111.575 20.004ZM117.426 9.10096C117.426 8.67461 117.601 8.30166 117.95 7.98189C118.276 7.68354 118.683 7.53436 119.172 7.53436C119.59 7.53436 119.998 7.68354 120.393 7.98189C120.719 8.34425 120.882 8.7172 120.882 9.10096V29.916C120.882 30.3635 120.719 30.7367 120.393 31.0351C120.044 31.3548 119.637 31.5146 119.172 31.5146C118.683 31.5146 118.275 31.3548 117.95 31.0351C117.601 30.7367 117.426 30.3635 117.426 29.916V9.10096ZM140 29.852C140 30.321 139.837 30.7047 139.511 31.0031C139.185 31.3014 138.766 31.4506 138.254 31.4506C137.928 31.4506 137.568 31.3014 137.172 31.0031C136.776 30.6407 136.578 30.257 136.578 29.852C135.136 30.9179 133.413 31.4506 131.412 31.4506C128.945 31.4506 126.862 30.7045 125.163 29.2125C123.44 27.6991 122.579 25.8233 122.579 23.5852C122.579 21.3471 123.44 19.4393 125.163 17.8619C126.885 16.2845 128.968 15.4958 131.412 15.4958C133.856 15.4958 135.904 16.2845 137.556 17.8619C139.185 19.4179 140 21.3257 140 23.5852L140 29.852ZM127.606 26.9424C128.607 27.8588 129.875 28.3172 131.411 28.3172C132.878 28.3172 134.111 27.8588 135.112 26.9424C136.089 26.0471 136.578 24.928 136.578 23.5852C136.578 22.221 136.089 21.0593 135.112 20.1C134.111 19.1195 132.878 18.6292 131.411 18.6292C129.945 18.6292 128.677 19.1195 127.606 20.1C126.536 21.0805 126 22.2424 126 23.5852C126 24.9068 126.536 26.0259 127.606 26.9424Z" fill="#2A3136"/>
<path d="M30.9507 19.1584C33.2017 20.2528 33.2017 23.46 30.9507 24.5544L12.3118 33.6165C10.3192 34.5853 8 33.1341 8 30.9185L8 12.7943C8 10.5787 10.3192 9.12755 12.3117 10.0963L30.9507 19.1584Z" fill="#FFD43C"/>
<path d="M166.475 20.1152C166.475 20.2611 166.434 20.4251 166.352 20.6074C166.27 20.7806 166.16 20.9629 166.023 21.1543C165.887 21.3457 165.732 21.5417 165.559 21.7422C165.385 21.9336 165.212 22.125 165.039 22.3164C164.902 22.4714 164.757 22.6309 164.602 22.7949C164.447 22.9499 164.269 23.1276 164.068 23.3281C163.877 23.5195 163.649 23.7474 163.385 24.0117C163.12 24.2669 162.811 24.5677 162.455 24.9141C162.136 25.224 161.781 25.5521 161.389 25.8984C161.006 26.2357 160.614 26.5684 160.213 26.8965C159.821 27.2246 159.438 27.5391 159.064 27.8398C158.691 28.1406 158.367 28.4049 158.094 28.6328C157.438 29.1706 156.813 29.6764 156.221 30.1504C155.628 30.6335 155.045 31.0664 154.471 31.4492C153.331 32.2148 152.429 32.5977 151.764 32.5977C151.536 32.5977 151.271 32.5384 150.971 32.4199C150.661 32.3014 150.506 32.1374 150.506 31.9277C150.506 31.3353 150.729 30.8704 151.176 30.5332C151.613 30.2142 152.297 29.8678 153.227 29.4941C154.138 29.1296 154.822 28.7741 155.277 28.4277C155.733 28.0814 155.961 27.6074 155.961 27.0059C155.961 26.7051 155.646 26.0944 155.018 25.1738C154.708 24.709 154.43 24.2852 154.184 23.9023C153.947 23.5104 153.742 23.1595 153.568 22.8496C153.222 22.2116 153.049 21.5417 153.049 20.8398C153.049 20.2292 153.163 19.5866 153.391 18.9121C153.5 18.5293 153.673 18.1465 153.91 17.7637C154.156 17.3717 154.421 17.0254 154.703 16.7246C154.986 16.4147 155.273 16.1686 155.564 15.9863C155.856 15.804 156.111 15.7174 156.33 15.7266C157.132 15.7266 157.533 16.2005 157.533 17.1484C157.533 17.513 157.401 17.8685 157.137 18.2148C157.009 18.3789 156.854 18.5521 156.672 18.7344C156.49 18.9076 156.28 19.0944 156.043 19.2949C155.815 19.4863 155.619 19.6549 155.455 19.8008C155.3 19.9466 155.173 20.0697 155.072 20.1699C155.072 20.6439 155.218 21.1999 155.51 21.8379C155.665 22.1478 155.842 22.485 156.043 22.8496C156.243 23.2142 156.476 23.6061 156.74 24.0254C157.005 24.4447 157.228 24.8229 157.41 25.1602C157.592 25.4883 157.729 25.7298 157.82 25.8848C157.829 25.9212 157.88 25.9395 157.971 25.9395C158.098 25.9395 158.317 25.8483 158.627 25.666C158.946 25.4746 159.32 25.224 159.748 24.9141C160.186 24.5951 160.66 24.2305 161.17 23.8203C161.68 23.401 162.191 22.959 162.701 22.4941C163.23 22.0202 163.667 21.6055 164.014 21.25C164.36 20.8945 164.688 20.5618 164.998 20.252C165.308 19.9421 165.536 19.7051 165.682 19.541C165.837 19.3678 165.923 19.2812 165.941 19.2812C166.014 19.2812 166.083 19.3086 166.146 19.3633C166.21 19.418 166.265 19.4909 166.311 19.582C166.365 19.6641 166.406 19.7552 166.434 19.8555C166.461 19.9466 166.475 20.0332 166.475 20.1152ZM178.807 18.1738C178.807 18.3379 178.784 18.4792 178.738 18.5977C178.693 18.7161 178.629 18.8164 178.547 18.8984C178.465 18.9805 178.369 19.0579 178.26 19.1309C178.15 19.1947 178.036 19.2585 177.918 19.3223C177.617 19.459 177.257 19.5729 176.838 19.6641C176.428 19.7552 175.999 19.8372 175.553 19.9102C175.115 19.974 174.678 20.0332 174.24 20.0879C173.812 20.1335 173.42 20.1836 173.064 20.2383C172.399 20.3385 171.811 20.4206 171.301 20.4844C170.79 20.5391 170.348 20.5938 169.975 20.6484C169.601 20.7031 169.291 20.7624 169.045 20.8262C168.799 20.89 168.603 20.9811 168.457 21.0996C168.266 21.929 168.065 22.7721 167.855 23.6289C167.655 24.4766 167.482 25.2741 167.336 26.0215C167.309 26.1491 167.277 26.2858 167.24 26.4316C167.213 26.5684 167.181 26.7142 167.145 26.8691C167.081 27.1882 167.031 27.4707 166.994 27.7168C166.958 27.9538 166.939 28.1816 166.939 28.4004C166.939 28.7103 166.971 28.9609 167.035 29.1523C167.072 29.2526 167.113 29.3848 167.158 29.5488C167.204 29.7038 167.263 29.8861 167.336 30.0957C167.482 30.5241 167.555 30.8294 167.555 31.0117C167.555 31.3034 167.436 31.6178 167.199 31.9551C166.971 32.2923 166.716 32.4609 166.434 32.4609C166.133 32.4609 165.823 32.2331 165.504 31.7773C165.349 31.5495 165.212 31.3216 165.094 31.0938C164.975 30.875 164.87 30.6517 164.779 30.4238C164.633 29.9863 164.561 29.5579 164.561 29.1387C164.561 29.0475 164.565 28.9564 164.574 28.8652C164.583 28.765 164.597 28.6602 164.615 28.5508C164.652 28.3503 164.706 28.0996 164.779 27.7988C164.816 27.653 164.843 27.5299 164.861 27.4297C164.889 27.3203 164.911 27.2337 164.93 27.1699C165.148 26.1582 165.331 25.3105 165.477 24.627C165.632 23.9434 165.745 23.4102 165.818 23.0273C166.01 22.1706 166.105 21.6875 166.105 21.5781C166.105 21.4323 166.051 21.3229 165.941 21.25C165.841 21.168 165.718 21.127 165.572 21.127C165.399 21.127 165.203 21.1361 164.984 21.1543C164.766 21.1634 164.524 21.1862 164.26 21.2227C163.995 21.2591 163.777 21.2865 163.604 21.3047C163.43 21.3138 163.303 21.3184 163.221 21.3184C162.893 21.3184 162.592 21.2682 162.318 21.168C162.054 21.0677 161.826 20.9264 161.635 20.7441C161.434 20.5527 161.279 20.3294 161.17 20.0742C161.061 19.8099 161.006 19.5137 161.006 19.1855C161.261 19.222 161.521 19.2493 161.785 19.2676C162.059 19.2767 162.341 19.2812 162.633 19.2812C162.76 19.2812 162.952 19.2767 163.207 19.2676C163.471 19.2493 163.799 19.222 164.191 19.1855C164.592 19.1491 164.934 19.1217 165.217 19.1035C165.508 19.0853 165.745 19.0762 165.928 19.0762C166.146 19.0762 166.388 18.7389 166.652 18.0645C166.78 17.7181 166.898 17.3672 167.008 17.0117C167.126 16.6562 167.231 16.2871 167.322 15.9043C167.423 15.5215 167.505 15.1842 167.568 14.8926C167.641 14.5918 167.701 14.3366 167.746 14.127C167.764 14.0723 167.805 13.8717 167.869 13.5254C167.915 13.3431 167.951 13.1745 167.979 13.0195C168.015 12.8555 168.042 12.7096 168.061 12.582C168.124 12.2357 168.193 11.9167 168.266 11.625C168.348 11.3333 168.439 11.069 168.539 10.832C168.74 10.3581 169.063 10.1211 169.51 10.1211C170.184 10.1211 170.521 10.4948 170.521 11.2422C170.521 11.707 170.421 12.2402 170.221 12.8418C169.355 15.6035 168.922 17.2897 168.922 17.9004C168.922 18.2376 169.09 18.4062 169.428 18.4062C170.257 18.4062 171.096 18.388 171.943 18.3516C172.8 18.306 173.63 18.2467 174.432 18.1738C174.851 18.1374 175.22 18.1009 175.539 18.0645C175.867 18.0189 176.168 17.9779 176.441 17.9414C176.715 17.8958 176.975 17.8548 177.221 17.8184C177.476 17.7819 177.745 17.7454 178.027 17.709C178.082 17.6999 178.15 17.6953 178.232 17.6953C178.324 17.6862 178.41 17.6953 178.492 17.7227C178.574 17.75 178.647 17.8001 178.711 17.873C178.775 17.9368 178.807 18.0371 178.807 18.1738ZM200.148 18.9395C200.148 19.2858 200.062 19.6823 199.889 20.1289C199.715 20.5664 199.479 20.9766 199.178 21.3594C198.795 21.8516 198.362 22.3392 197.879 22.8223C197.405 23.3053 196.908 23.7702 196.389 24.2168C195.869 24.6543 195.34 25.0645 194.803 25.4473C194.265 25.821 193.741 26.1491 193.23 26.4316C192.729 26.7051 192.255 26.9238 191.809 27.0879C191.362 27.2428 190.97 27.3203 190.633 27.3203C190.204 27.3203 189.831 27.2474 189.512 27.1016C189.193 26.9557 188.915 26.7598 188.678 26.5137C188.45 26.2585 188.258 25.9622 188.104 25.625C187.949 25.2878 187.812 24.9323 187.693 24.5586C187.584 24.1849 187.493 23.8021 187.42 23.4102C187.347 23.0091 187.279 22.6217 187.215 22.248C186.987 22.5944 186.727 22.9863 186.436 23.4238C186.153 23.8522 185.852 24.2897 185.533 24.7363C185.223 25.1829 184.904 25.6159 184.576 26.0352C184.257 26.4453 183.956 26.8053 183.674 27.1152C183.355 27.4525 183.004 27.776 182.621 28.0859C182.247 28.3958 181.846 28.6693 181.418 28.9062C180.999 29.1341 180.557 29.321 180.092 29.4668C179.627 29.6035 179.148 29.6719 178.656 29.6719C177.936 29.6719 177.371 29.3757 176.961 28.7832C176.56 28.1908 176.359 27.5072 176.359 26.7324C176.359 26.3678 176.387 25.9896 176.441 25.5977C176.505 25.1966 176.574 24.8001 176.646 24.4082C176.729 24.0163 176.806 23.6335 176.879 23.2598C176.952 22.877 177.002 22.5169 177.029 22.1797C177.038 22.043 177.043 21.8743 177.043 21.6738C177.052 21.4642 177.057 21.2227 177.057 20.9492C177.057 20.7031 177.057 20.4798 177.057 20.2793C177.057 20.0697 177.061 19.8737 177.07 19.6914C177.079 19.5 177.093 19.3132 177.111 19.1309C177.13 18.9486 177.157 18.7572 177.193 18.5566C177.248 18.2467 177.371 17.9779 177.562 17.75C177.754 17.5221 178.055 17.4082 178.465 17.4082C179.303 17.4082 179.723 17.987 179.723 19.1445C179.723 19.3451 179.7 19.5684 179.654 19.8145C179.618 20.0514 179.572 20.3021 179.518 20.5664C179.463 20.8216 179.404 21.0859 179.34 21.3594C179.285 21.6237 179.235 21.8835 179.189 22.1387C179.098 22.4941 179.007 22.8496 178.916 23.2051C178.825 23.5605 178.738 23.9069 178.656 24.2441C178.583 24.5814 178.524 24.9095 178.479 25.2285C178.433 25.5384 178.41 25.8255 178.41 26.0898C178.41 26.2266 178.428 26.3815 178.465 26.5547C178.501 26.7188 178.556 26.8783 178.629 27.0332C178.702 27.179 178.798 27.3021 178.916 27.4023C179.044 27.5026 179.189 27.5527 179.354 27.5527C179.837 27.5527 180.324 27.4206 180.816 27.1562C181.309 26.8828 181.778 26.5501 182.225 26.1582C182.68 25.7572 183.104 25.3333 183.496 24.8867C183.897 24.431 184.248 24.0163 184.549 23.6426C184.84 23.2689 185.128 22.8268 185.41 22.3164C185.702 21.806 185.975 21.2773 186.23 20.7305C186.495 20.1745 186.745 19.623 186.982 19.0762C187.219 18.5293 187.434 18.0371 187.625 17.5996C188.053 16.597 188.436 16.0957 188.773 16.0957C189.02 16.0957 189.184 16.1367 189.266 16.2188C189.348 16.2917 189.389 16.4466 189.389 16.6836C189.389 16.8659 189.366 17.112 189.32 17.4219C189.284 17.7318 189.238 18.0553 189.184 18.3926C189.129 18.7298 189.079 19.0534 189.033 19.3633C188.997 19.6732 188.979 19.9147 188.979 20.0879C188.979 20.2428 188.979 20.4342 188.979 20.6621C188.988 20.8809 188.997 21.1087 189.006 21.3457C189.015 21.5827 189.029 21.8197 189.047 22.0566C189.074 22.2845 189.106 22.4805 189.143 22.6445C189.179 22.8359 189.243 23.0729 189.334 23.3555C189.425 23.6289 189.539 23.8978 189.676 24.1621C189.822 24.4264 189.995 24.6543 190.195 24.8457C190.396 25.028 190.628 25.1191 190.893 25.1191C191.385 25.1191 191.941 24.9733 192.561 24.6816C193.189 24.39 193.832 24.0163 194.488 23.5605C195.145 23.0957 195.796 22.5807 196.443 22.0156C197.09 21.4414 197.692 20.8763 198.248 20.3203C198.467 20.1016 198.686 19.8828 198.904 19.6641C199.132 19.4453 199.337 19.263 199.52 19.1172C199.711 18.9714 199.861 18.8757 199.971 18.8301C200.089 18.7845 200.148 18.821 200.148 18.9395ZM219.904 18.6797C219.904 18.7982 219.877 18.9212 219.822 19.0488C219.768 19.1764 219.713 19.2949 219.658 19.4043C219.458 19.7871 219.198 20.2064 218.879 20.6621C218.569 21.1087 218.227 21.5645 217.854 22.0293C217.489 22.485 217.106 22.9271 216.705 23.3555C216.313 23.7839 215.939 24.1621 215.584 24.4902C215.283 24.7728 214.941 25.0872 214.559 25.4336C214.176 25.7799 213.779 26.1035 213.369 26.4043C212.959 26.7051 212.544 26.9603 212.125 27.1699C211.706 27.3704 211.309 27.4707 210.936 27.4707C210.744 27.4707 210.512 27.4069 210.238 27.2793C209.673 27.0241 209.217 26.541 208.871 25.8301C208.707 25.4746 208.575 25.1283 208.475 24.791C208.374 24.4538 208.297 24.1074 208.242 23.752C208.188 23.3965 208.142 23.0228 208.105 22.6309C208.069 22.2298 208.028 21.7878 207.982 21.3047C206.843 23.4284 205.367 25.3151 203.553 26.9648C201.739 28.6237 199.852 29.4531 197.893 29.4531C197.355 29.4531 196.945 29.166 196.662 28.5918C196.38 28.0176 196.238 27.4297 196.238 26.8281C196.238 26.0078 196.307 25.3971 196.443 24.9961C196.826 23.8294 197.264 22.7357 197.756 21.7148C198.257 20.694 198.863 19.6914 199.574 18.707C199.802 18.388 200.048 18.069 200.312 17.75C200.577 17.431 200.859 17.112 201.16 16.793C201.762 16.1549 202.327 15.6992 202.855 15.4258C203.512 15.0703 204.455 14.8926 205.686 14.8926C206.114 14.8926 206.479 15.1296 206.779 15.6035C207.089 16.0957 207.317 16.6471 207.463 17.2578C207.618 17.8958 207.695 18.4154 207.695 18.8164C207.832 18.3698 207.955 17.9186 208.064 17.4629C208.174 16.998 208.27 16.5195 208.352 16.0273C208.434 15.5352 208.507 15.0202 208.57 14.4824C208.643 13.9355 208.707 13.3522 208.762 12.7324C208.78 12.5684 208.798 12.3587 208.816 12.1035C208.835 11.8483 208.857 11.5475 208.885 11.2012C208.939 10.4902 208.994 9.89323 209.049 9.41016C209.104 8.91797 209.176 8.59896 209.268 8.45312C209.477 8.07943 209.86 7.89258 210.416 7.89258C210.68 7.89258 210.949 7.95182 211.223 8.07031C211.505 8.17969 211.646 8.33464 211.646 8.53516C211.646 8.64453 211.624 8.82227 211.578 9.06836C211.542 9.31445 211.487 9.63346 211.414 10.0254C211.341 10.4173 211.241 10.9049 211.113 11.4883C210.995 12.0716 210.863 12.7598 210.717 13.5527C210.626 14.0996 210.539 14.6009 210.457 15.0566C210.384 15.5124 210.316 15.9271 210.252 16.3008C210.133 17.0391 210.038 17.7318 209.965 18.3789C209.892 19.026 209.855 19.6823 209.855 20.3477C209.855 20.4206 209.86 20.5938 209.869 20.8672C209.878 21.1315 209.896 21.4505 209.924 21.8242C209.951 22.1888 209.983 22.5762 210.02 22.9863C210.065 23.3965 210.124 23.7747 210.197 24.1211C210.27 24.4674 210.357 24.7546 210.457 24.9824C210.557 25.2103 210.676 25.3242 210.812 25.3242C211.004 25.3242 211.173 25.306 211.318 25.2695C211.473 25.2331 211.633 25.1738 211.797 25.0918C211.961 25.0098 212.139 24.9095 212.33 24.791C212.521 24.6634 212.749 24.513 213.014 24.3398C213.278 24.1667 213.561 23.9525 213.861 23.6973C214.171 23.4421 214.481 23.1732 214.791 22.8906C215.101 22.599 215.397 22.3073 215.68 22.0156C215.971 21.724 216.231 21.4551 216.459 21.209C217.006 20.6257 217.525 20.0423 218.018 19.459C218.519 18.8757 218.961 18.3789 219.344 17.9688C219.371 17.9414 219.439 17.9186 219.549 17.9004C219.667 17.873 219.736 17.8594 219.754 17.8594C219.809 17.8594 219.845 17.8913 219.863 17.9551C219.882 18.0098 219.895 18.0781 219.904 18.1602C219.913 18.2422 219.913 18.3333 219.904 18.4336C219.904 18.5247 219.904 18.6068 219.904 18.6797ZM206.574 20.8535C206.337 20.7988 206.155 20.6803 206.027 20.498C205.909 20.3158 205.85 20.1107 205.85 19.8828C205.85 19.7005 205.877 19.4316 205.932 19.0762C205.986 18.7207 206.014 18.4473 206.014 18.2559C206.014 18.0918 205.968 17.9095 205.877 17.709C205.795 17.4993 205.686 17.3079 205.549 17.1348C205.412 16.9525 205.257 16.8021 205.084 16.6836C204.92 16.556 204.756 16.4922 204.592 16.4922C204.109 16.4922 203.452 16.998 202.623 18.0098C202.204 18.5202 201.816 19.0169 201.461 19.5C201.115 19.974 200.796 20.4434 200.504 20.9082C200.194 21.4186 199.925 21.8835 199.697 22.3027C199.469 22.7129 199.278 23.082 199.123 23.4102C198.585 24.5586 198.316 25.4701 198.316 26.1445C198.316 26.9922 198.604 27.416 199.178 27.416C199.688 27.416 200.39 27.1198 201.283 26.5273C202.186 25.9167 202.896 25.3516 203.416 24.832C203.936 24.2943 204.368 23.8385 204.715 23.4648C205.061 23.082 205.335 22.7767 205.535 22.5488C205.927 22.0931 206.273 21.528 206.574 20.8535ZM223.117 9.98438C223.117 10.5768 222.962 11.0827 222.652 11.502C222.352 11.9212 221.91 12.1309 221.326 12.1309C220.962 12.1309 220.556 12.0762 220.109 11.9668C219.672 11.8574 219.453 11.6797 219.453 11.4336C219.453 10.987 219.59 10.5632 219.863 10.1621C220.146 9.75195 220.483 9.41927 220.875 9.16406C221.185 8.98177 221.39 8.89062 221.49 8.89062C222.01 8.89062 222.411 8.96354 222.693 9.10938C222.976 9.24609 223.117 9.53776 223.117 9.98438ZM232.072 21.0996C232.081 21.291 231.995 21.5508 231.812 21.8789C231.639 22.207 231.398 22.5807 231.088 23C230.787 23.4102 230.432 23.8522 230.021 24.3262C229.62 24.8001 229.197 25.2741 228.75 25.748C228.24 26.2949 227.697 26.8236 227.123 27.334C226.558 27.8353 225.952 28.3229 225.305 28.7969C224.029 29.7448 222.889 30.2188 221.887 30.2188C220.784 30.2188 219.927 29.8496 219.316 29.1113C218.706 28.3639 218.291 27.4616 218.072 26.4043C217.854 25.3561 217.744 24.276 217.744 23.1641C217.744 22.6992 217.799 21.9746 217.908 20.9902C217.963 20.498 218.018 20.0742 218.072 19.7188C218.127 19.3633 218.186 19.0762 218.25 18.8574C218.378 18.429 218.646 18.0553 219.057 17.7363C219.476 17.3991 219.913 17.2305 220.369 17.2305C220.615 17.2305 220.738 17.4629 220.738 17.9277C220.738 18.2376 220.706 18.5885 220.643 18.9805C220.588 19.3724 220.529 19.7598 220.465 20.1426C220.346 20.8626 220.26 21.5098 220.205 22.084C220.15 22.6491 220.123 23.1413 220.123 23.5605C220.123 24.4811 220.251 25.4108 220.506 26.3496C220.761 27.3066 221.221 27.7852 221.887 27.7852C222.561 27.7852 223.345 27.5391 224.238 27.0469C224.685 26.7917 225.132 26.5091 225.578 26.1992C226.025 25.8893 226.471 25.543 226.918 25.1602C227.374 24.7773 227.811 24.3945 228.23 24.0117C228.65 23.6198 229.06 23.2188 229.461 22.8086C229.862 22.3984 230.222 22.0156 230.541 21.6602C230.86 21.3047 231.138 20.9766 231.375 20.6758C231.384 20.6576 231.398 20.6302 231.416 20.5938C231.443 20.5482 231.471 20.5072 231.498 20.4707C231.525 20.4251 231.553 20.3887 231.58 20.3613C231.607 20.334 231.635 20.3249 231.662 20.334C231.79 20.334 231.885 20.4342 231.949 20.6348C232.031 20.8262 232.072 20.9811 232.072 21.0996ZM241.738 20.8672C241.738 21.1589 241.725 21.4368 241.697 21.7012C241.67 21.9655 241.629 22.2207 241.574 22.4668C241.52 22.7129 241.447 22.9635 241.355 23.2188C241.264 23.4648 241.155 23.7201 241.027 23.9844C240.9 24.2669 240.667 24.6042 240.33 24.9961C239.993 25.388 239.587 25.7936 239.113 26.2129C238.648 26.6322 238.133 27.0469 237.568 27.457C237.012 27.8672 236.447 28.2363 235.873 28.5645C235.299 28.8926 234.734 29.1569 234.178 29.3574C233.631 29.5579 233.134 29.6582 232.688 29.6582C232.077 29.6582 231.544 29.5579 231.088 29.3574C230.632 29.1478 230.254 28.8789 229.953 28.5508C229.652 28.2135 229.424 27.8307 229.27 27.4023C229.124 26.974 229.051 26.541 229.051 26.1035C229.051 25.8118 229.087 25.4792 229.16 25.1055C229.233 24.7318 229.329 24.3444 229.447 23.9434C229.566 23.5423 229.707 23.1322 229.871 22.7129C230.035 22.2936 230.208 21.8926 230.391 21.5098C230.573 21.127 230.76 20.7715 230.951 20.4434C231.143 20.1152 231.329 19.8372 231.512 19.6094C231.831 19.2083 232.214 18.8164 232.66 18.4336C233.116 18.0508 233.613 17.7135 234.15 17.4219C234.688 17.1211 235.262 16.8796 235.873 16.6973C236.493 16.515 237.131 16.4238 237.787 16.4238C238.279 16.4238 238.762 16.5469 239.236 16.793C239.71 17.0299 240.13 17.3535 240.494 17.7637C240.868 18.1738 241.169 18.6478 241.396 19.1855C241.624 19.7233 241.738 20.2839 241.738 20.8672ZM239.605 21.2637C239.605 20.3613 239.346 19.6549 238.826 19.1445C238.316 18.6341 237.577 18.3789 236.611 18.3789C236.283 18.3789 235.951 18.4655 235.613 18.6387C235.276 18.8118 234.952 19.026 234.643 19.2812C234.333 19.5365 234.046 19.8099 233.781 20.1016C233.526 20.3841 233.312 20.6393 233.139 20.8672C232.965 21.1042 232.774 21.4277 232.564 21.8379C232.355 22.2389 232.154 22.6719 231.963 23.1367C231.781 23.5924 231.626 24.0527 231.498 24.5176C231.38 24.9733 231.32 25.3743 231.32 25.7207C231.32 25.9303 231.361 26.1445 231.443 26.3633C231.525 26.5729 231.639 26.7643 231.785 26.9375C231.94 27.1016 232.122 27.2383 232.332 27.3477C232.542 27.457 232.774 27.5117 233.029 27.5117C233.303 27.5117 233.654 27.4297 234.082 27.2656C234.52 27.1016 234.98 26.8783 235.463 26.5957C235.955 26.304 236.447 25.9622 236.939 25.5703C237.432 25.1693 237.874 24.7363 238.266 24.2715C238.667 23.8066 238.99 23.319 239.236 22.8086C239.482 22.2982 239.605 21.7832 239.605 21.2637Z" fill="#2A3136"/>
</svg>
