<?xml version="1.0" standalone="no"?>
<!DOCTYPE svg PUBLIC "-//W3C//DTD SVG 20010904//EN"
 "http://www.w3.org/TR/2001/REC-SVG-20010904/DTD/svg10.dtd">
<svg version="1.0" xmlns="http://www.w3.org/2000/svg"
 width="512.000000pt" height="512.000000pt" viewBox="0 0 512.000000 512.000000"
 preserveAspectRatio="xMidYMid meet">
<metadata>
Created by potrace 1.14, written by Peter Selinger 2001-2017
</metadata>
<g transform="translate(0.000000,512.000000) scale(0.100000,-0.100000)"
fill="#000000" stroke="none">
<path d="M1283 4101 c-109 -40 -190 -119 -235 -229 l-23 -57 -3 -1190 c-2
-809 1 -1212 8 -1259 26 -169 153 -298 319 -325 61 -10 140 -3 191 17 14 6
576 278 1250 606 l1225 595 56 60 c76 79 102 146 103 262 0 80 -2 92 -37 162
-26 52 -53 89 -87 119 -39 34 -308 169 -1262 633 -667 324 -1235 597 -1263
607 -67 23 -175 23 -242 -1z"/>
</g>
</svg>
