<svg width="40" height="40" viewBox="0 0 40 40" fill="none" xmlns="http://www.w3.org/2000/svg">
<path d="M18.9097 36.5597C17.5241 35.44 4.65713 22.8408 4.5133 22.703C3.94502 22.1308 3.58721 21.5374 3.48899 20.9934C3.38726 20.4283 3.55915 19.9338 4.01518 19.4746C4.43964 19.0472 4.95881 18.8212 5.51656 18.8212C6.1971 18.8212 6.89517 19.1461 7.47748 19.736L13.3111 25.3804C13.4129 25.4793 13.5462 25.5287 13.676 25.5287C13.8128 25.5287 13.9461 25.4757 14.0478 25.3733C14.2512 25.1684 14.2513 24.8364 14.0513 24.6316L4.73781 14.9464C3.8047 14.0068 3.36622 12.5693 4.47471 11.4531C4.89917 11.0257 5.41834 10.7996 5.9761 10.7996C6.65663 10.7996 7.35471 11.1246 7.93702 11.7145L17.4645 21.0676C17.5662 21.1665 17.6995 21.2195 17.8328 21.2195C17.9661 21.2195 18.1029 21.1665 18.2047 21.0641C18.4081 20.8592 18.4116 20.5272 18.2082 20.3188L6.76538 8.50728C6.23568 7.97392 5.91646 7.3346 5.86034 6.71294C5.80772 6.08069 6.02872 5.49435 6.50228 5.01751C6.92674 4.59012 7.44591 4.36406 8.00367 4.36406C8.6842 4.36406 9.38228 4.68902 9.96459 5.27535L21.6354 16.7337C21.7371 16.8326 21.8704 16.8855 22.0037 16.8855C22.137 16.8855 22.2738 16.8326 22.3756 16.7301C22.579 16.5253 22.5825 16.1932 22.3791 15.9848L13.904 7.21451C13.3708 6.67762 13.0515 6.04183 12.9989 5.42017C12.9463 4.78792 13.1673 4.20158 13.6409 3.72474C14.0653 3.29735 14.5845 3.07129 15.1423 3.07129C15.8228 3.07129 16.5209 3.39625 17.1032 3.98612C20.2112 7.05909 28.325 15.0947 28.5986 15.3914C29.6404 16.1155 29.8509 15.0206 29.9035 14.3106C29.9632 13.4841 29.023 10.5983 29.5703 8.00218C30.4893 4.55126 33.1378 5.11641 33.1975 5.14466C34.6497 5.8299 34.3726 6.85423 33.8569 8.91347L33.8043 9.31967C33.2641 12.0112 36.9755 19.9868 37.2491 20.5837C38.7049 23.7909 40.3816 30.2936 34.8286 35.885C28.7424 42.0133 21.2074 38.8732 18.9097 36.5597Z" fill="url(#paint0_radial_1223_199)"/>
<path d="M26.7185 40C22.9861 40 19.8114 38.2021 18.5591 36.9553C17.4331 36.0299 10.3261 29.121 4.53802 23.466C4.30299 23.2364 4.16618 23.1057 4.15215 23.088C3.49617 22.4275 3.08926 21.7388 2.9735 21.0888C2.8402 20.3506 3.06821 19.6831 3.64351 19.1002C4.16969 18.5704 4.81515 18.2914 5.51673 18.2914C6.34109 18.2914 7.16895 18.6729 7.84949 19.3616L13.6761 24.9989L4.35912 15.3138C3.2857 14.2329 2.74548 12.4421 4.10304 11.0787C4.62923 10.5489 5.27468 10.2699 5.97626 10.2699C6.80062 10.2699 7.62849 10.6513 8.30902 11.3401L17.8295 20.6862L6.3902 8.87819C5.77982 8.26359 5.40448 7.51125 5.33783 6.76243C5.27117 5.96416 5.54479 5.23301 6.13061 4.64314C6.6568 4.11331 7.30225 3.83427 8.00383 3.83427C8.82468 3.83427 9.65255 4.21221 10.3366 4.90098L22.0039 16.3558L13.5288 7.58542C12.9149 6.96729 12.5396 6.21494 12.4764 5.46613C12.4098 4.67139 12.6834 3.94024 13.2692 3.35037C13.7954 2.82054 14.4408 2.5415 15.1424 2.5415C15.9668 2.5415 16.7946 2.92298 17.4752 3.61175L20.0044 6.10898C24.512 10.5595 28.2795 14.2859 28.6829 14.7027C28.8794 14.8617 29.1355 14.9217 29.2442 14.8687C29.3144 14.8334 29.3915 14.6709 29.3775 14.3283C29.3565 13.7278 29.2723 12.9826 29.1846 12.1949C29.0092 10.6125 28.8268 8.97356 29.0548 7.89272C29.5529 6.01714 30.5316 5.22241 31.2613 4.87979C32.2645 4.41355 33.2362 4.57602 33.4221 4.66433C35.2462 5.52617 34.8849 6.96729 34.3868 8.96649L34.3763 9.01594L34.3201 9.42921C33.9553 11.2377 35.8285 16.2357 37.7018 20.3082L37.7298 20.3648C38.9822 23.1198 41.2377 30.1877 35.2041 36.263C32.4294 39.0499 29.4266 40 26.7185 40ZM5.51673 19.351C5.1028 19.351 4.70991 19.5241 4.38718 19.8491C4.05393 20.1846 3.93817 20.5096 4.00833 20.8981C4.0855 21.3255 4.39771 21.8341 4.8853 22.3286C4.88881 22.3322 5.02913 22.4699 5.27117 22.703C13.4867 30.7316 18.4469 35.5036 19.2397 36.1464L19.2818 36.1853C21.2181 38.135 28.4128 41.5965 34.457 35.5106C40.024 29.9051 37.9298 23.36 36.7687 20.8027L36.7441 20.7498C35.5374 18.1289 32.7942 11.771 33.2818 9.23494L33.3625 8.70511C33.9027 6.54344 33.9343 6.09132 33.0187 5.64627C32.7486 5.59682 30.8122 5.36016 30.0721 8.13997C29.8862 9.02654 30.0651 10.6478 30.2229 12.0783C30.3141 12.8872 30.3983 13.6537 30.4194 14.293C30.4544 15.2996 29.9809 15.6847 29.6932 15.8259C29.1074 16.112 28.4093 15.8683 27.9743 15.501L27.9287 15.4586C27.7148 15.2255 22.6248 10.1992 19.2572 6.87193L16.7245 4.36763C15.8615 3.49519 14.7495 3.35037 14.0024 4.10272C13.6375 4.47006 13.4727 4.90098 13.5112 5.37782C13.5533 5.87586 13.8199 6.39508 14.2654 6.84367L22.7581 15.614C23.158 16.0237 23.158 16.6948 22.7511 17.1046C22.3617 17.4966 21.6741 17.5037 21.2742 17.1152L9.59642 5.65333C8.73348 4.78442 7.61796 4.6396 6.87429 5.39195C6.50947 5.7593 6.34459 6.19022 6.38318 6.66706C6.42878 7.16509 6.69538 7.68785 7.13738 8.12937L18.5837 19.948C18.9871 20.3577 18.9836 21.0288 18.5767 21.4385C18.1873 21.8306 17.4997 21.8377 17.0998 21.4491L7.56885 12.0924C6.70591 11.2165 5.59039 11.0752 4.84672 11.8275C3.93817 12.7424 4.42226 13.8762 5.10981 14.572L14.4303 24.2643C14.8302 24.674 14.8267 25.3416 14.4198 25.7478C14.0269 26.1434 13.3464 26.1469 12.9465 25.7619L7.11283 20.1175C6.62172 19.6195 6.05695 19.351 5.51673 19.351Z" fill="#EDA600"/>
<path d="M27.7607 15.0488C25.8348 19.0084 26.0839 24.5503 28.9744 28.9973C29.3006 29.5978 29.8584 29.3046 29.5742 28.6865C26.0839 21.1665 29.7426 15.7482 29.7426 15.7482L27.7607 15.0488Z" fill="#EDA600"/>
<path d="M20.1865 0.199706C21.2459 -0.0793343 22.3755 -0.0546091 23.4734 0.203238C24.5644 0.46815 25.6554 1.02623 26.4657 1.93753C27.2585 2.84176 27.7461 3.94026 27.9109 5.09174C28.0653 6.23263 27.9215 7.40883 27.3847 8.38371C27.3216 7.28874 27.1322 6.28208 26.813 5.35312C26.6481 4.89041 26.4552 4.44889 26.2201 4.03209C25.9886 3.61883 25.715 3.2091 25.4238 2.87355C24.831 2.18478 24.0277 1.64789 23.1262 1.2311C22.2211 0.800172 21.2354 0.482278 20.1865 0.199706Z" fill="#B0BEC5"/>
<path d="M20.478 3.54845C21.0638 3.17405 21.797 3.09634 22.4881 3.21996C23.1861 3.34359 23.8526 3.69327 24.3788 4.17718C24.9015 4.66815 25.2733 5.28627 25.5049 5.92913C25.6171 6.25055 25.6732 6.58964 25.7259 6.91813C25.7434 7.25722 25.7434 7.5963 25.6908 7.93539C25.4487 7.67754 25.2593 7.4197 25.0804 7.16891C24.8734 6.93226 24.7121 6.68148 24.5262 6.45189C24.1613 5.99624 23.807 5.58298 23.4247 5.21563C23.0318 4.85888 22.6179 4.54452 22.1373 4.27255C21.6602 3.99351 21.1235 3.76038 20.478 3.54845Z" fill="#90A4AE"/>
<path d="M0.423209 25.9277C0.917823 26.9026 1.43349 27.8068 2.03334 28.6051C2.62968 29.4034 3.31372 30.0815 4.11002 30.5231C4.49589 30.7385 4.95542 30.9257 5.40444 31.067C5.85696 31.2118 6.32702 31.3107 6.81111 31.3779C7.77929 31.4979 8.79658 31.4768 9.87351 31.3107C9.03863 32.0419 7.92311 32.4304 6.78655 32.5152C5.63596 32.5929 4.46783 32.3421 3.42247 31.7487C2.3701 31.1447 1.59836 30.184 1.11427 29.1632C0.630175 28.1353 0.37059 27.0298 0.423209 25.9277Z" fill="#B0BEC5"/>
<path d="M3.73798 25.5142C4.07824 26.1076 4.415 26.5844 4.78333 27.0012C5.14816 27.418 5.54104 27.7606 5.969 28.0714C6.40399 28.3717 6.88106 28.6366 7.40023 28.9015C7.65982 29.0357 7.93694 29.1417 8.21056 29.2971C8.4947 29.4207 8.78235 29.5514 9.08403 29.7386C8.76481 29.8587 8.43857 29.9294 8.10532 29.9823C7.77558 29.9965 7.43531 30.0141 7.09855 29.9682C6.42503 29.8764 5.75151 29.6397 5.16219 29.2265C4.58338 28.8061 4.1028 28.2233 3.83971 27.5628C3.5731 26.9058 3.49593 26.1711 3.73798 25.5142Z" fill="#90A4AE"/>
<defs>
<radialGradient id="paint0_radial_1223_199" cx="0" cy="0" r="1" gradientUnits="userSpaceOnUse" gradientTransform="translate(13.4782 12.0323) rotate(-45.1973) scale(32.0351 32.0344)">
<stop offset="0.3533" stop-color="#FFCA28"/>
<stop offset="0.8723" stop-color="#FFB300"/>
</radialGradient>
</defs>
</svg>
