<svg width="313" height="318" viewBox="0 0 313 318" fill="none" xmlns="http://www.w3.org/2000/svg">
<path d="M203 178C200 176 197 175 194 179L182 195C179 197 177 198 173 196C158 188 137 179 119 149C118 145 120 143 122 141L131 127C133 125 132 123 131 121L119 92C116 84 113 85 110 85H102C100 85 96 86 92 90C70 112 79 143 95 163C98 167 118 203 161 222C193 236 200 234 209 232C220 231 231 222 236 213C237 210 242 197 238 195M159 289C118 289 87 267 87 267L38 280L50 232C50 232 30 201 30 162C30 90 89 30 162 30C230 30 288 83 288 157C288 229 230 288 159 289ZM0 318L83 295C107.038 307.306 133.829 313.246 160.816 312.252C187.803 311.258 214.085 303.364 237.153 289.323C260.221 275.281 279.305 255.562 292.583 232.047C305.861 208.531 312.89 182.005 313 155C313 69 245 0 159 0C131.397 0.0706178 104.295 7.37133 80.391 21.1751C56.4875 34.9788 36.6174 54.8039 22.7595 78.676C8.9015 102.548 1.53931 129.634 1.40606 157.237C1.27281 184.839 8.37316 211.995 22 236" fill="white"/>
</svg>
