<?xml version="1.0" encoding="UTF-8"?>
<!DOCTYPE svg PUBLIC "-//W3C//DTD SVG 1.1//EN" "http://www.w3.org/Graphics/SVG/1.1/DTD/svg11.dtd">
<!-- Creator: CorelDRAW -->
<svg xmlns="http://www.w3.org/2000/svg" xml:space="preserve" width="280" height="44px" style="shape-rendering:geometricPrecision; text-rendering:geometricPrecision; image-rendering:optimizeQuality; fill-rule:evenodd; clip-rule:evenodd"
viewBox="0 0 522.249 61.0887"
 xmlns:xlink="http://www.w3.org/1999/xlink">
 <defs>
  <style type="text/css">
   <![CDATA[
    .fil1 {fill:#FFD43C}
    .fil0 {fill:#3b4548;fill-rule:nonzero}
   ]]>
  </style>
 </defs>
 <g id="Слой_x0020_1">
  <metadata id="CorelCorpID_0Corel-Layer"/>
  <g id="_176353568">
   <path id="_176361344" class="fil0" d="M141.586 17.1102c4.49918,0 8.62194,1.61663 11.8193,4.30036l0 -17.3886c0,-1.98379 1.48,-3.30801 3.28888,-3.30801l-0.000297704 0c1.80888,0 3.28918,1.32422 3.28918,3.30801l0 30.684 -0.01734 0c0.0113598,0.265505 0.01734,0.532499 0.01734,0.800991 0,5.07863 -2.05973,9.67827 -5.38927,13.0078 -3.32954,3.32954 -7.92919,5.38927 -13.0078,5.38927 -5.07863,0 -9.67857,-2.05974 -13.0075,-5.38927 -3.32954,-3.32954 -5.38928,-7.92919 -5.38928,-13.0078 0,-5.07893 2.05974,-9.67797 5.38928,-13.0075 3.32954,-3.32954 7.92858,-5.38927 13.0075,-5.38927zm130.534 0c5.07863,0 9.67827,2.05973 13.0078,5.38927 3.32954,3.32894 5.38928,7.92889 5.38928,13.0075l-0.00119604 0.168631 0.00119604 0.00239208 0 14.918c0,1.98379 -1.48029,3.30801 -3.28918,3.30801l0.000302927 0c-1.80889,0 -3.28888,-1.32422 -3.28888,-3.30801l0 -0.992347c-3.19739,2.68373 -7.32015,4.30036 -11.8193,4.30036 -5.07862,0 -9.67857,-2.05974 -13.0075,-5.38927 -3.32954,-3.32954 -5.38927,-7.92919 -5.38927,-13.0078 0,-5.07893 2.05973,-9.67797 5.38927,-13.0075 3.32954,-3.32954 7.92858,-5.38927 13.0075,-5.38927zm8.35734 10.0397c-2.13866,-2.13866 -5.09387,-3.46199 -8.35734,-3.46199 -3.26317,0 -6.21837,1.32333 -8.35704,3.46199 -2.13866,2.13867 -3.46199,5.09387 -3.46199,8.35704 0,3.26346 1.32333,6.21867 3.46199,8.35734 2.13837,2.13867 5.09358,3.462 8.35704,3.462 3.26346,0 6.21867,-1.32333 8.35734,-3.462 2.13867,-2.13866 3.462,-5.09387 3.462,-8.35734 0,-3.26346 -1.32333,-6.21867 -3.462,-8.35704zm-115.285 -4.77096c-0.709497,-1.66716 0.0672759,-3.59445 1.73444,-4.30394 1.66716,-0.709502 3.59444,0.0672707 4.30394,1.73443l9.42233 22.0863 9.42233 -22.0863c0.709502,-1.66716 2.63679,-2.44394 4.30395,-1.73443 1.66716,0.709497 2.44393,2.63678 1.73443,4.30394l-12.4415 29.1634 -0.00568249 0.0128587 -0.00358289 0.00807457c-0.0950825,0.219455 -0.211386,0.423069 -0.345634,0.609938l0 0.000297704 -0.0439505 0.059499 -0.00418353 0.00567727c-0.0293056,0.0388687 -0.0592013,0.0768442 -0.0902983,0.114214l-0.0134541 0.0161491 -0.0364766 0.0424568 -0.0128535 0.0149479 -0.0355835 0.039767 -0.0221241 0.0239156 -0.0373749 0.0394693 -0.0149479 0.0158462 -0.0325908 0.0325908 -0.0325908 0.0325855 -0.0158462 0.0149531 -0.0394641 0.0373697 -0.0239208 0.0221293 -0.0397618 0.0355782 -0.0149531 0.0128587 -0.0424568 0.0364766 -0.0161439 0.0134541c-0.0373749,0.0307941 -0.0753452,0.0609928 -0.114214,0.0902931l-0.00568249 0.00418353 -0.059499 0.0439557 -0.000297704 0c-0.186869,0.133946 -0.390776,0.250249 -0.609938,0.345629l-0.00806935 0.00358812 -0.0128587 0.00568249c-0.0633848,0.0269083 -0.12737,0.0517222 -0.191351,0.0744469l-0.0230224 0.00777164c-0.328592,0.113916 -0.664951,0.172517 -0.997429,0.179693l-0.0113598 0 -0.0615934 0.000898335 -0.0615934 -0.000898335 -0.0113598 0c-0.332776,-0.00747394 -0.668837,-0.0657769 -0.997429,-0.179693l-0.0230224 -0.00777164c-0.0639803,-0.022427 -0.127966,-0.0475386 -0.191351,-0.0744469l-0.0128587 -0.00568249 -0.00806935 -0.00358812c-0.21946,-0.0953802 -0.423069,-0.211683 -0.609938,-0.345629l-0.000297704 0 -0.059499 -0.0439557 -0.00568249 -0.00418353c-0.0388687,-0.0293003 -0.076839,-0.0592013 -0.114214,-0.0902931l-0.0161439 -0.0134541 -0.0424568 -0.0364766 -0.0149479 -0.0128587 -0.039767 -0.0355782 -0.0239208 -0.0221293 -0.0394641 -0.0373697 -0.0158462 -0.0149531 -0.0325908 -0.0325855 -0.0325908 -0.0325908 -0.0149479 -0.0158462 -0.0373749 -0.0394693 -0.0221241 -0.0239156 -0.0355782 -0.039767 -0.0128587 -0.0149479 -0.0364766 -0.0424568 -0.0134541 -0.0161491c-0.0307941,-0.0373697 -0.0609928,-0.0753452 -0.0902931,-0.114214l-0.00418875 -0.00567727 -0.0439505 -0.059499 0 -0.000297704c-0.133946,-0.186869 -0.250254,-0.390781 -0.345629,-0.609938l-0.00358812 -0.00807457 -0.00568249 -0.0128587 -12.4415 -29.1634zm76.0245 28.2171c0,1.98379 1.48,3.30801 3.28888,3.30801l-0.000297704 0c1.80888,0 3.28918,-1.32422 3.28918,-3.30801 0,-15.7624 0,-31.5257 0,-47.2881 0,-1.98379 -1.48029,-3.30801 -3.28918,-3.30801l0.000297704 0c-1.80888,0 -3.28888,1.32422 -3.28888,3.30801 0,15.7624 0,31.5257 0,47.2881zm-134.737 -6.34664c1.29821,-1.26263 3.37498,-1.23393 4.63761,0.0642832 1.26263,1.29821 1.23393,3.37499 -0.0642832,4.63762 -1.69167,1.65162 -3.6964,2.97942 -5.9134,3.88207 -2.14345,0.873046 -4.48244,1.35412 -6.92697,1.35412 -5.07863,0 -9.67857,-2.05974 -13.0075,-5.38927 -3.32954,-3.32954 -5.38928,-7.92919 -5.38928,-13.0078 0,-5.07892 2.05974,-9.67797 5.38928,-13.0075 3.32954,-3.32954 7.92858,-5.38927 13.0075,-5.38927 5.07862,0 9.67827,2.05974 13.0078,5.38927 3.32954,3.32894 5.38927,7.92889 5.38927,13.0075 0,1.81636 -1.47252,3.28888 -3.28888,3.28888l-26.4632 0c0.561501,1.94164 1.60706,3.67756 2.99796,5.06846 2.13837,2.13867 5.09358,3.462 8.35704,3.462 1.58374,0 3.08945,-0.307962 4.46032,-0.866173 1.43275,-0.583328 2.72349,-1.43664 3.80673,-2.49416zm-16.6241 -16.816c-1.3906,1.3906 -2.43646,3.12683 -2.99796,5.06816l22.7103 0c-0.561496,-1.94163 -1.60706,-3.67756 -2.99796,-5.06816 -2.13867,-2.13866 -5.09387,-3.46199 -8.35734,-3.46199 -3.26317,0 -6.21837,1.32333 -8.35704,3.46199zm128.447 -10.3232c5.07862,0 9.67827,2.05973 13.0078,5.38927 3.32954,3.32894 5.38927,7.92889 5.38927,13.0075 0,5.07863 -2.05974,9.67827 -5.38927,13.0078 -3.32954,3.32954 -7.92858,5.38927 -13.0078,5.38927 -5.07863,0 -9.67857,-2.05974 -13.0075,-5.38927 -3.32954,-3.32954 -5.38927,-7.92919 -5.38927,-13.0078 0,-5.07893 2.05974,-9.67797 5.38927,-13.0075 3.32894,-3.32954 7.92889,-5.38927 13.0075,-5.38927zm8.35734 10.0397c-2.13867,-2.13866 -5.09387,-3.46199 -8.35734,-3.46199 -3.26346,0 -6.21867,1.32333 -8.35704,3.46199 -2.13867,2.13867 -3.462,5.09387 -3.462,8.35704 0,3.26346 1.32333,6.21867 3.462,8.35734 2.13837,2.13867 5.09358,3.462 8.35704,3.462 3.26346,0 6.21867,-1.32333 8.35734,-3.462 2.13866,-2.13866 3.46199,-5.09387 3.46199,-8.35734 0,-3.26346 -1.32333,-6.21867 -3.46199,-8.35704zm-76.7167 0c-2.13867,-2.13866 -5.09387,-3.46199 -8.35734,-3.46199 -3.26317,0 -6.21837,1.32333 -8.35704,3.46199 -2.13867,2.13867 -3.462,5.09387 -3.462,8.35704 0,3.26346 1.32333,6.21867 3.462,8.35734 2.13837,2.13867 5.09358,3.462 8.35704,3.462 3.26346,0 6.21867,-1.32333 8.35734,-3.462 2.13866,-2.13866 3.46199,-5.09387 3.46199,-8.35734 0,-3.26346 -1.32333,-6.21867 -3.46199,-8.35704z"/>
   <path id="_176361296" class="fil1" d="M10.5417 6.87345l38.9822 19.6424c5.99383,3.01979 5.99383,10.8599 0,13.8797l-38.9822 19.6424c-5.80726,2.64306 -10.5417,0.149197 -10.5417,-5.69364l0 -41.7771c0,-5.84284 4.73449,-8.33671 10.5417,-5.69365z"/>
   <path id="_176356448" class="fil0" d="M443.222 29.2468c-0.0233202,-0.107335 -0.0388687,-0.218259 -0.0451466,-0.331877 -0.00119604,-0.0251116 -0.473297,-8.91106 -4.27913,-8.91106 -2.0095,0 -4.82329,2.45589 -7.47771,5.77497 -3.26496,4.08239 -6.07874,9.3449 -6.99275,13.247 -0.440414,1.88004 -0.519347,3.37858 -0.256835,4.42833 0.12737,0.509178 0.322612,0.859592 0.580037,1.0327 0.281947,0.189559 0.733423,0.253842 1.35382,0.178199 1.31495,-0.160854 3.06045,-0.914307 5.22483,-2.35095 4.81312,-3.195 9.22979,-9.06534 11.8929,-13.0673zm33.8276 -25.5549c0.934342,-0.677214 2.24152,-0.468518 2.91873,0.465823 0.677209,0.934342 0.468513,2.24152 -0.465823,2.91873 -1.04885,0.760033 -0.826108,0.694554 -1.25217,1.89918 -0.3836,1.08802 -1.57716,1.65909 -2.66518,1.27548 -1.08802,-0.3836 -1.65909,-1.57716 -1.27549,-2.66519 0.7104,-2.00711 1.00071,-2.63349 2.73993,-3.89403zm41.7403 35.8775c-2.3049,2.93278 -5.7077,5.69813 -9.1655,7.50462 -3.37289,1.76194 -6.88243,2.64276 -9.68305,1.9808 -1.12689,-0.2661 -2.0696,-0.746877 -2.84279,-1.40046 -1.37355,-1.16067 -2.13299,-2.79405 -2.39729,-4.69323 -0.0962785,-0.693055 -0.125579,-1.42229 -0.0944819,-2.17574 -4.83644,4.42862 -12.1647,9.965 -18.38,9.72969 -7.56561,-0.286428 -7.70733,-10.8503 -6.80139,-18.5328 -2.44035,2.78448 -5.49362,6.04167 -8.5451,8.70357 -1.97333,1.72128 -3.87131,2.84189 -5.61651,3.34539 -1.74251,0.502598 -3.34838,0.411704 -4.76229,-0.283446 -1.3897,-0.683189 -2.49865,-1.90186 -3.26646,-3.66202 -0.800991,-1.83549 -1.24409,-4.32936 -1.24708,-7.48459 -2.92381,4.24026 -7.40565,9.91118 -12.3536,13.1956 -2.73365,1.81456 -5.09238,2.78478 -7.02295,3.02128 -1.65132,0.201817 -3.05358,-0.104646 -4.18286,-0.864674 -1.1538,-0.776475 -1.93057,-1.95658 -2.31298,-3.48561 -0.423069,-1.69108 -0.353108,-3.85726 0.24009,-6.39029 0.0293003,-0.124681 0.0603921,-0.250254 0.0926852,-0.377024 -4.09794,2.96866 -9.57392,6.31733 -13.1098,6.03808 -3.51013,-0.276865 -5.46702,-1.10028 -6.68599,-3.65484 -0.803681,-1.6845 -1.06888,-4.05578 -1.17921,-7.67684 -0.652092,1.34575 -1.37236,2.73157 -2.159,4.08658 -2.28547,3.93738 -5.17879,7.06062 -8.02965,9.24832 -2.12312,1.62949 -4.25222,2.75966 -6.12329,3.3418 -3.75769,1.16935 -7.0355,0.276567 -7.71002,-3.59982 -0.794415,-4.56556 0.285535,-13.4458 1.02852,-18.4978 -1.96974,0.457456 -5.57554,1.17712 -11.9204,2.13269 -3.04969,0.459248 -6.02761,0.736107 -8.77263,0.893379 -0.364766,1.81337 -0.721457,3.66471 -1.05812,5.52053 -1.34485,7.41672 -1.73055,11.1657 -1.73294,13.2916 -0.00179145,1.73862 0.637447,3.03623 1.36907,4.54852 0.31214,0.645516 0.284934,1.43545 -0.141723,2.07528 -0.641035,0.961548 -2.23973,1.22137 -3.20127,0.580335 -1.26891,-0.84584 -2.02505,-4.21036 -2.13538,-5.72773 -0.168328,-2.30521 0.0956779,-6.44411 1.73832,-15.5035 0.147703,-0.814445 0.298989,-1.6271 0.45297,-2.43586 -1.91562,1.59959 -4.65765,3.89433 -8.2796,6.93803 -7.07079,5.94181 -9.42084,7.58954 -10.0918,8.01649 -3.41535,3.8148 -12.0457,8.723 -12.0765,8.74064 -1.00221,0.573462 -2.27979,0.225738 -2.85325,-0.776475 -0.573462,-1.00221 -0.225738,-2.57878 0.776475,-3.15224 0.0322878,-0.018536 11.3368,-6.16694 11.3368,-7.34646 0,-0.882311 -1.72487,-3.30383 -3.68534,-6.05572 -1.21957,-1.71201 -2.52197,-3.54003 -3.67577,-5.44518 -3.94008,-6.5057 5.23529,-14.6044 5.26131,-14.6277 0.857795,-0.767507 2.17544,-0.694256 2.94295,0.163544 0.767507,0.8578 0.694251,2.17544 -0.163544,2.94295 -0.0188389,0.0167393 -6.60407,5.84941 -4.47616,9.36313 1.02134,1.6866 2.3079,3.49219 3.51252,5.18327 1.61573,2.26843 3.09962,4.35148 3.88476,6.14452 1.03301,-0.97859 3.03623,-2.77222 6.92518,-6.04017 3.14656,-2.64426 5.50139,-4.68994 7.23015,-6.22884 -3.63541,-0.0556132 -5.93074,-0.268492 -5.94509,-0.269689 -1.1514,-0.099266 -2.00412,-1.11343 -1.90486,-2.26484 0.0992608,-1.15141 1.11343,-2.00412 2.26484,-1.90486 0.0191366,0.00149897 4.25342,0.394071 10.2915,0.230224l0.00956831 -0.00418875c2.13089,-10.116 4.2854,-18.2586 4.29318,-18.2885 0.293306,-1.11523 1.43545,-1.78138 2.55067,-1.48807 1.11523,0.293306 1.78138,1.43545 1.48807,2.55067 -0.00747394,0.0287049 -1.99784,7.55246 -4.02499,17.0247 2.307,-0.158164 4.7626,-0.406925 7.26932,-0.784549 7.90407,-1.19027 11.7281,-2.02087 13.3893,-2.43825 0.427258,-0.736708 1.28177,-1.16605 2.16946,-1.01118 1.13765,0.198527 1.89918,1.28236 1.70065,2.42002 -0.00777687,0.0451466 -2.31417,13.0443 -2.10129,18.8219 0.0929829,2.53872 0.24278,3.12204 2.82245,2.31956 1.42857,-0.444597 3.1053,-1.34665 4.83166,-2.67147 2.45709,-1.88573 4.95963,-4.59217 6.9503,-8.02187 2.13866,-3.68384 3.77832,-7.65621 4.85827,-10.2727 1.0052,-2.43556 1.66238,-4.022 2.97554,-4.27375 1.40495,-0.273574 2.25378,0.301083 2.54141,1.79962l0.00149374 -0.000297704c0.00927061,0.0490324 0.0167445,0.101057 0.0221293,0.155772 0.0113598,0.099266 0.0155433,0.197634 0.0128535,0.295401 -0.000898335,0.376126 -0.0535188,0.861388 -0.121688,1.48986 -0.160854,1.48687 -0.433535,4.00525 -0.400647,6.27039 0.0651815,4.45254 0.194944,7.06929 0.839264,8.42013 0.400647,0.83986 1.37296,1.13705 3.23626,1.28386 4.4947,0.354602 15.5038,-9.33204 15.5355,-9.35955 0.157564,-0.137832 0.330081,-0.247862 0.51157,-0.330081 1.28834,-2.33989 2.82185,-4.66004 4.45374,-6.70034 3.38306,-4.2304 7.32613,-7.36081 10.7313,-7.36081 4.46092,0 6.58194,4.20617 7.58116,7.80929 0.897264,-10.2123 2.70525,-21.6907 2.71183,-21.7335 0.175807,-1.13765 1.2414,-1.91741 2.37905,-1.74161 1.13766,0.175807 1.91742,1.2414 1.74161,2.37906 -0.00836705,0.0547149 -3.01172,19.1221 -3.15074,29.6238 -0.0367743,2.77671 0.286433,4.85648 0.900257,6.26292 0.358488,0.821621 0.788733,1.34784 1.2716,1.58524 0.458349,0.22544 1.06171,0.231123 1.78676,0.0221293 1.14842,-0.331282 2.50283,-1.16098 4.01393,-2.47892 6.46892,-5.64312 13.0311,-14.2082 13.05,-14.2331 0.699631,-0.916401 2.0104,-1.09221 2.9268,-0.392572 0.708306,0.540568 0.973806,1.44651 0.735214,2.25288 -0.376428,1.55713 -4.93332,20.9271 1.52873,21.1717 8.12532,0.307659 19.7808,-12.9591 20.4129,-13.6829 0.975002,-2.08814 2.21371,-4.07074 3.58338,-5.69126 0.71847,-0.850023 1.4477,-1.62889 2.18232,-2.3354 2.73186,-2.62782 5.51485,-4.1981 8.13698,-4.72432l0.00149374 -0.000302927 -0.00149374 -0.00777164c2.87747,-0.57705 5.52502,0.0699605 7.71451,1.92041 0.256234,0.216765 0.510677,0.455957 0.761825,0.716976 2.05615,2.13777 3.19141,5.05142 3.0757,8.26226 -0.101956,2.82724 -1.17503,5.86975 -3.45153,8.76635zm-11.0952 3.80912c2.94713,-1.53949 5.84613,-3.89522 7.80869,-6.39238 1.69886,-2.16169 2.49716,-4.35118 2.56831,-6.33019 0.0735538,-2.04778 -0.633258,-3.88865 -1.91443,-5.22095 -0.14142,-0.147102 -0.292413,-0.288225 -0.451471,-0.422771 -1.16606,-0.985468 -2.60778,-1.32392 -4.199,-1.0049l-0.00149374 -0.00777164c-1.84536,0.370746 -3.91287,1.58045 -6.05871,3.64468 -0.622196,0.598275 -1.25306,1.27369 -1.88812,2.02505 -2.00741,2.37487 -3.67876,5.68976 -4.40769,8.77442 -0.342642,1.4504 -0.470012,2.81349 -0.312746,3.94516 0.125276,0.901751 0.431441,1.63159 0.95856,2.07708 0.274473,0.232016 0.636246,0.409317 1.0931,0.517253 1.7748,0.419481 4.26687,-0.278656 6.80499,-1.60468z"/>
  </g>
 </g>
</svg>
