<svg width="53" height="53" viewBox="0 0 53 53" fill="none" xmlns="http://www.w3.org/2000/svg">
<circle cx="26.5" cy="26.5" r="26.5" fill="#F1C644"/>
<path d="M24.713 28.098L24.046 23.4L24.191 23.255C27.5743 23.1197 29.266 22.2207 29.266 20.558C29.266 19.9007 29.034 19.398 28.57 19.05C28.106 18.6827 27.4487 18.499 26.598 18.499C25.032 18.499 23.582 19.166 22.248 20.5L19.58 17.571C21.4747 15.483 23.843 14.439 26.685 14.439C28.8117 14.439 30.513 14.9707 31.789 16.034C33.065 17.0973 33.703 18.586 33.703 20.5C33.703 23.6127 31.7987 25.5557 27.99 26.329L27.671 28.098H24.713ZM23.756 35V30.36H28.454V35H23.756Z" fill="#3B4548"/>
</svg>
